# xmcd
#
# Track frame offsets:
#	150
#	10716
#	26175
#	47586
#	66892
#	82564
#	103835
#	130988
#	152773
#	173633
#	191840
#	215684
#	233592
#	248443
#	262520
#	279278
#	294233
#
# Disc length: 4180 seconds
#
# Revision: 0
# Processed by: cddbd v1.5.1PL2 Copyright (c) Steve Scherf et al.
# Submitted via: EasyCDDAExtractor 8.1.2.3
#
DISCID=d5105211
DTITLE=Mino - Retro-perspective [CD 1)
DYEAR=2005
DGENRE=Rap
TTITLE0=C du Mino
TTITLE1=Bretzel
TTITLE2=L'enfer du devoir
TTITLE3=Peplum
TTITLE4=De mes nuages
TTITLE5=Stalag 13
TTITLE6=Entre dans le 13
TTITLE7=Solide et coriace
TTITLE8=Mars
TTITLE9=Libertad
TTITLE10=On nait on vit on meurt
TTITLE11=Cri de colere
TTITLE12=Fervent soldat
TTITLE13=C'est du Mino
TTITLE14=Petite histoire
TTITLE15=Street skillz anthem
TTITLE16=Le talent au bout des levres
EXTD=
EXTT0=
EXTT1=
EXTT2=
EXTT3=
EXTT4=
EXTT5=
EXTT6=
EXTT7=
EXTT8=
EXTT9=
EXTT10=
EXTT11=
EXTT12=
EXTT13=
EXTT14=
EXTT15=
EXTT16=
PLAYORDER=
